<svg xmlns="http://www.w3.org/2000/svg" width="9.279" height="18" viewBox="0 0 9.279 18"><defs><style>.a{opacity:0.401;}</style></defs><path class="a" d="M149.057,37.186a.627.627,0,0,0-.627.627v7.809a3.239,3.239,0,0,1-.884,2.213,3.179,3.179,0,0,1-2.229.952h-.546a3.122,3.122,0,0,1-2.2-.988,3.225,3.225,0,0,1-.96-2.217V35.507a2.183,2.183,0,0,1,.695-1.587,2.39,2.39,0,0,1,1.647-.655,2.236,2.236,0,0,1,2.258,2.241v9.408a1.27,1.27,0,0,1-1.165,1.293,1.235,1.235,0,0,1-1.133-1.293V39.548a.627.627,0,0,0-1.253,0v5.367a2.41,2.41,0,0,0,4.1,1.808,2.537,2.537,0,0,0,.7-1.808V35.507A3.511,3.511,0,0,0,143.939,32a3.525,3.525,0,0,0-2.5,1.024,3.466,3.466,0,0,0-1.04,2.486V45.585a4.489,4.489,0,0,0,1.31,3.133A4.342,4.342,0,0,0,144.766,50h.546a4.388,4.388,0,0,0,3.049-1.289,4.513,4.513,0,0,0,.96-1.39,4.206,4.206,0,0,0,.358-1.691V37.813A.621.621,0,0,0,149.057,37.186Z" transform="translate(-140.4 -32)"/></svg>