<svg xmlns="http://www.w3.org/2000/svg" width="22.414" height="25" viewBox="0 0 22.414 25"><defs><style>.a{fill:#965353;}.b{fill:#844747;}.c{fill:#eac6bb;}.d{fill:#d3b1a9;}.e{fill:#545c66;}.f{fill:#656d78;}.g{fill:#e6e9ed;}.h{fill:#f5f7fa;}.i{fill:#da4453;}.j{fill:#ed5565;}</style></defs><g transform="translate(0 -5.177)"><path class="a" d="M105.293,38.042,104,39.336V37.18a5.171,5.171,0,0,1,5.172-5.173h3.448v1.724a2.586,2.586,0,0,1,2.586,2.586v3.017l-1.293-1.293a11.207,11.207,0,0,1-8.621,0Zm0,0" transform="translate(-98.396 -26.831)"/><path class="b" d="M241.293,35.025a1.3,1.3,0,0,1,1.293,1.293v1.724l1.293,1.293V36.318a2.586,2.586,0,0,0-2.586-2.586V32.008H240v1.724A1.293,1.293,0,0,0,241.293,35.025Zm0,0" transform="translate(-227.069 -26.831)"/><path class="c" d="M115.207,147.025a5.6,5.6,0,1,1-11.207,0V145.3l1.293-1.293a11.207,11.207,0,0,0,8.621,0l1.293,1.293Zm0,0" transform="translate(-98.396 -132.796)"/><path class="d" d="M200.942,144.008h0v3.016a5.585,5.585,0,0,1-4.957,5.564,5.675,5.675,0,0,0,.647.04,5.6,5.6,0,0,0,5.6-5.6V145.3Zm0,0" transform="translate(-185.425 -132.796)"/><path class="e" d="M75.026,320l1.3,2.164-.875.431,2.159,2.578H72v-2.155A3.015,3.015,0,0,1,75.017,320Zm0,0" transform="translate(-68.121 -299.306)"/><path class="f" d="M129.884,320l1.289,5.168h-.431l-2.159-2.578.875-.431L128.16,320h1.716Zm0,0" transform="translate(-121.255 -299.306)"/><path class="g" d="M162.315,321.72v0l-.435,3.522h-.431l-1.289-5.168,1.509.858Zm0,0" transform="translate(-151.531 -299.38)"/><path class="h" d="M162.586,292.95a5.618,5.618,0,0,0,2.586-.629v1.491l-1.5.862-1.082-.431-1.069.431-1.509-.858-.009,0V292.32A5.618,5.618,0,0,0,162.586,292.95Zm0,0" transform="translate(-151.379 -273.118)"/><path class="i" d="M193.376,350.4l.431,3.535h-1.729l.435-3.522Zm0,0" transform="translate(-181.729 -328.066)"/><path class="g" d="M218.307,320l-1.285,5.172h-.431l-.431-3.535.642-.776Zm0,0" transform="translate(-204.513 -299.306)"/><path class="f" d="M233.876,322.164l.871.431-2.155,2.578h-.431L233.445,320h1.724Zm0,0" transform="translate(-219.651 -299.306)"/><path class="e" d="M242.738,320a3.015,3.015,0,0,1,3.017,3.017v2.155H240.16l2.155-2.578-.871-.431Zm0,0" transform="translate(-227.22 -299.306)"/><path class="e" d="M370.571,456l-2.587,1.724h0V456Zm0,0" transform="translate(-348.157 -427.978)"/><path class="e" d="M2.586,456v1.724h0L0,456Zm0,0" transform="translate(0 -427.978)"/><path class="a" d="M65.242,457.724v.431H48V456H65.242Zm0,0" transform="translate(-45.414 -427.978)"/><g transform="translate(1.293 19.581)"><path class="g" d="M24.436,301.747a.431.431,0,0,1-.3-.736l1.546-1.544a.431.431,0,0,1,.61.609l-1.546,1.544A.43.43,0,0,1,24.436,301.747Zm0,0" transform="translate(-24.005 -299.341)"/><path class="g" d="M24.439,333.173a.431.431,0,0,1-.431-.431v-4.311a.431.431,0,0,1,.862,0v4.311A.431.431,0,0,1,24.439,333.173Zm0,0" transform="translate(-24.008 -326.456)"/><path class="g" d="M349.294,301.747a.43.43,0,0,1-.3-.126l-1.546-1.544a.431.431,0,1,1,.61-.609l1.546,1.544a.431.431,0,0,1-.3.736Zm0,0" transform="translate(-329.897 -299.341)"/><path class="g" d="M376.439,333.173a.431.431,0,0,1-.431-.431v-4.311a.431.431,0,0,1,.862,0v4.311A.431.431,0,0,1,376.439,333.173Zm0,0" transform="translate(-357.042 -326.456)"/></g><path class="j" d="M189.661,329.215l.008-.009.642-.776L189.229,328l-1.069.431.647.784Zm0,0" transform="translate(-178.022 -306.875)"/><path class="f" d="M21.983,416H.431a.432.432,0,0,0-.431.431v1.724H22.414v-1.724A.432.432,0,0,0,21.983,416Zm0,0" transform="translate(0 -390.133)"/><path class="f" d="M329.888,281.951a.858.858,0,0,1-1.216,0l-.431-.431a.861.861,0,0,1,1.216-1.22l.431.431A.856.856,0,0,1,329.888,281.951Zm0,0" transform="translate(-310.314 -261.506)"/><path class="f" d="M49.873,280.3a.856.856,0,0,1,0,1.22l-.431.431a.861.861,0,0,1-1.216-1.22l.431-.431A.859.859,0,0,1,49.873,280.3Zm0,0" transform="translate(-45.386 -261.506)"/></g></svg>