<svg xmlns="http://www.w3.org/2000/svg" width="21" height="18.667" viewBox="0 0 21 18.667"><defs><style>.a{opacity:0.403;}</style></defs><path class="a" d="M21,.875V5.541a.876.876,0,0,1-1.494.619l-1.3-1.3L9.326,13.736a.875.875,0,0,1-1.237,0l-.825-.825a.875.875,0,0,1,0-1.237L16.142,2.8l-1.3-1.3A.876.876,0,0,1,15.459,0h4.666A.875.875,0,0,1,21,.875Zm-6.16,9-.583.583a.875.875,0,0,0-.256.619v5.259H2.333V4.667h9.625a.875.875,0,0,0,.619-.256l.583-.583a.875.875,0,0,0-.619-1.494H1.75A1.75,1.75,0,0,0,0,4.083V16.917a1.75,1.75,0,0,0,1.75,1.75H14.583a1.75,1.75,0,0,0,1.75-1.75V10.491A.875.875,0,0,0,14.84,9.873Z"/></svg>