<svg xmlns="http://www.w3.org/2000/svg" width="17.43" height="33.991" viewBox="0 0 17.43 33.991"><defs><style>.a{fill:#356b93;}.b{fill:#5881a5;}.c{fill:#394d63;}.d{fill:#20303f;}.e{fill:#ed2929;}.f{fill:#ff5a5a;}.g{fill:#e6e6e6;font-size:3.5px;font-family:Play-Bold, Play;font-weight:700;}</style></defs><g transform="translate(-0.5 -0.001)"><path class="a" d="M77.751,335.73v9.119a2.584,2.584,0,0,1-2.584,2.584h-3.1a2.584,2.584,0,0,1-2.584-2.584V335.73Zm0,0" transform="translate(-64.401 -313.44)"/><path class="b" d="M106.828,390.969v5.452A2.583,2.583,0,0,1,104.244,399h-1.035a2.584,2.584,0,0,1-2.584-2.584v-3.863a1.588,1.588,0,0,1,1.588-1.588Zm0,0" transform="translate(-93.478 -365.011)"/><path class="c" d="M30.527,16.038a25.792,25.792,0,0,1-9.009,0,3.231,3.231,0,0,1-2.622-2.7A33.6,33.6,0,0,1,18.9,3.1,3.231,3.231,0,0,1,21.518.4a25.8,25.8,0,0,1,9.009,0A3.231,3.231,0,0,1,33.15,3.1a33.615,33.615,0,0,1,0,10.244A3.231,3.231,0,0,1,30.527,16.038Zm0,0" transform="translate(-16.808)"/><path class="d" d="M24.8,16.827a25.958,25.958,0,0,1-3.276-.366,3.231,3.231,0,0,1-2.623-2.7,33.616,33.616,0,0,1,0-10.244,3.232,3.232,0,0,1,2.623-2.7A25.957,25.957,0,0,1,24.8.453a3.411,3.411,0,0,0-2.5,2.786,35.438,35.438,0,0,0,0,10.8A3.41,3.41,0,0,0,24.8,16.827Zm0,0" transform="translate(-16.81 -0.422)"/><path class="e" d="M17.93,230.126v3.769a2.555,2.555,0,0,1-2.555,2.556H3.055A2.556,2.556,0,0,1,.5,233.895v-3.769a2.556,2.556,0,0,1,2.555-2.556h12.32A2.555,2.555,0,0,1,17.93,230.126Zm0,0" transform="translate(0 -212.461)"/><path class="f" d="M69.2,230.126v3.769a2.555,2.555,0,0,1-2.555,2.556H57.973a2.556,2.556,0,0,1-2.555-2.556v-3.769a2.556,2.556,0,0,1,2.555-2.556h8.674A2.555,2.555,0,0,1,69.2,230.126Zm0,0" transform="translate(-51.272 -212.461)"/><g transform="translate(2.366 17.226)"><text class="g" transform="translate(7.134 3.699)"><tspan x="-7.94" y="0">NOTÍCIAS</tspan></text></g><path class="d" d="M189.014,29.123a.516.516,0,1,1,.505-.415A.52.52,0,0,1,189.014,29.123Zm0,0" transform="translate(-175.518 -26.229)"/><path class="d" d="M205.269,50.358a.516.516,0,1,1,.506-.42A.52.52,0,0,1,205.269,50.358Zm0,0" transform="translate(-190.697 -46.052)"/><path class="d" d="M178.941,54.4a.515.515,0,1,1,.505-.415A.52.52,0,0,1,178.941,54.4Zm0,0" transform="translate(-166.117 -49.83)"/></g></svg>