<svg xmlns="http://www.w3.org/2000/svg" width="32.459" height="33.845" viewBox="0 0 32.459 33.845"><defs><style>.a{fill:#fedf30;}.b{fill:#fed402;}.c{fill:#727272;}.d{fill:#f3eae6;}.e{fill:#e8dcd9;}.f{fill:#d88a55;}.g{fill:#c57a44;}.h{fill:#444;}.i{fill:#3a3a3a;}</style></defs><g transform="translate(-10.483 0)"><path class="a" d="M317.491,6.516a6.513,6.513,0,0,0-13.026,0,6.379,6.379,0,0,0,1.491,4.058c.492.6,1.164,1.229,1.72,1.924a4.653,4.653,0,0,1,1.009,2.908v.237h4.587V15.4a4.664,4.664,0,0,1,1.133-3.059c.5-.572,1.066-1.09,1.527-1.636A6.517,6.517,0,0,0,317.491,6.516Z" transform="translate(-274.548 -0.003)"/><path class="b" d="M398.241,6.513a6.517,6.517,0,0,1-1.56,4.186c-.46.546-1.031,1.065-1.527,1.636a4.666,4.666,0,0,0-1.133,3.06v.245h-1.4v-.245a7.906,7.906,0,0,1,.206-1.868c.349-1.438,1.526-2.279,2.428-3.35a5.066,5.066,0,0,0,1.4-3.664A6.514,6.514,0,0,0,390.931.049a6.516,6.516,0,0,1,7.31,6.465Z" transform="translate(-355.299 0)"/><path class="c" d="M380.145,148.87l-.21.718a2.491,2.491,0,0,0-.1.7v3.46H378.8v-3.46a3.558,3.558,0,0,1,.143-.995l.021-.07a1.213,1.213,0,0,1-1.041,0l.02.07a3.534,3.534,0,0,1,.143.995v3.46h-1.038v-3.46a2.492,2.492,0,0,0-.1-.7l-.21-.718a.767.767,0,0,1,1.123-.877l.5.29a.174.174,0,0,0,.175,0l.5-.29a.767.767,0,0,1,1.123.877Z" transform="translate(-342.009 -138.112)"/><path class="c" d="M371.917,267.3h-.175a2.118,2.118,0,0,1-2.118-2.118h4.411A2.118,2.118,0,0,1,371.917,267.3Z" transform="translate(-335.4 -247.649)"/><path class="d" d="M365.588,236.74h-4.542a.537.537,0,0,1-.537-.537v-1.161a.537.537,0,0,1,.537-.537h4.542a.537.537,0,0,1,.537.537V236.2A.537.537,0,0,1,365.588,236.74Z" transform="translate(-326.888 -219.003)"/><path class="e" d="M424.419,235.043v1.16a.537.537,0,0,1-.537.537h-.953a.537.537,0,0,0,.537-.537v-1.16a.537.537,0,0,0-.537-.537h.953A.537.537,0,0,1,424.419,235.043Z" transform="translate(-385.181 -219.004)"/><path class="f" d="M30.374,275.789h-.116v-5.605H12.564v5.605h-.116a1.965,1.965,0,0,0,0,3.93h.116v.063a6.386,6.386,0,0,0,6.386,6.386h4.921a6.386,6.386,0,0,0,6.386-6.386v-.063h.116a1.965,1.965,0,0,0,0-3.93Z" transform="translate(0 -252.324)"/><path class="g" d="M196.03,269.259a1.965,1.965,0,0,1-1.965,1.965h-.116v.063a6.386,6.386,0,0,1-6.386,6.387h-1.8a6.386,6.386,0,0,0,6.386-6.387v-10.2h1.8v6.206h.116a1.966,1.966,0,0,1,1.965,1.965Z" transform="translate(-163.69 -243.828)"/><path class="h" d="M52.413,160.515H49.22a7.25,7.25,0,0,0-7.25,7.25v6.762a.347.347,0,0,0,.658.153,15.224,15.224,0,0,0,1.347-4.925,1.846,1.846,0,0,1,1.834-1.631H55.824a1.845,1.845,0,0,1,1.834,1.631,15.226,15.226,0,0,0,1.347,4.925.347.347,0,0,0,.658-.153v-6.762A7.25,7.25,0,0,0,52.413,160.515Z" transform="translate(-29.406 -149.904)"/><path class="i" d="M181.988,167.765v6.763a.347.347,0,0,1-.658.154,14.161,14.161,0,0,1-1.127-3.495v-3.421a7.251,7.251,0,0,0-7.25-7.25h1.785A7.25,7.25,0,0,1,181.988,167.765Z" transform="translate(-151.73 -149.904)"/><g transform="translate(18.497 23.503)"><path class="h" d="M152.179,412.556a1.777,1.777,0,0,1-1.639-1.087.5.5,0,1,1,.927-.392.774.774,0,0,0,1.425,0,.5.5,0,1,1,.927.392A1.777,1.777,0,0,1,152.179,412.556Z" transform="translate(-149.258 -407.119)"/><path class="h" d="M132.219,357.585a.5.5,0,0,1-.5-.5v-1.041a.5.5,0,1,1,1.006,0v1.041A.5.5,0,0,1,132.219,357.585Z" transform="translate(-131.716 -355.538)"/><path class="h" d="M205.37,357.585a.5.5,0,0,1-.5-.5v-1.041a.5.5,0,1,1,1.006,0v1.041A.5.5,0,0,1,205.37,357.585Z" transform="translate(-200.031 -355.538)"/></g></g></svg>