<svg xmlns="http://www.w3.org/2000/svg" width="74.76" height="102.795" viewBox="0 0 74.76 102.795"><defs><style>.a{opacity:0.1;}.b{fill:#f7f7f7;}.c{fill:#fff;}.d{fill:#30e578;}.e{fill:#e87373;}.f{fill:#303c42;}.g{fill:#78909c;}</style></defs><g transform="translate(0 0)"><path class="a" d="M203.375,52H175.339a4.619,4.619,0,0,1-4.408-3.364,2.283,2.283,0,0,0-.265,1.028V52a4.677,4.677,0,0,0,4.672,4.672h28.035A4.677,4.677,0,0,0,208.047,52V49.666a2.282,2.282,0,0,0-.265-1.028A4.619,4.619,0,0,1,203.375,52Z" transform="translate(-151.977 -42.658)"/><path class="b" d="M160.094,152.778a4.677,4.677,0,0,1-4.672,4.672H90.006a4.677,4.677,0,0,1-4.672-4.672V68.672A4.677,4.677,0,0,1,90.006,64h9.345a9.356,9.356,0,0,0,9.345,9.345l-14.066-.611c5.152,0,3.558-3.58,3.558-8.734h57.233a4.677,4.677,0,0,1,4.672,4.672v84.105Z" transform="translate(-85.334 -54.655)"/><path class="c" d="M160.027,92.069l-.027.014.221.221C160.151,92.23,160.094,92.145,160.027,92.069Z" transform="translate(-143.646 -76.576)"/><rect class="d" width="10.707" height="10.707" transform="translate(11 34.363)"/><rect class="e" width="10.707" height="10.707" transform="translate(11 57.725)"/><rect class="d" width="10.707" height="10.707" transform="translate(11 81.088)"/><path class="f" d="M221.994,192.684a2.335,2.335,0,0,0-3.3,0l-.684.684-.684-.684a2.336,2.336,0,1,0-3.3,3.3l.684.684-.684.684a2.336,2.336,0,1,0,3.3,3.3l.684-.684.684.684a2.336,2.336,0,0,0,3.3-3.3l-.684-.684.684-.684A2.335,2.335,0,0,0,221.994,192.684Z" transform="translate(-185.299 -157.637)"/><path class="f" d="M285.994,192.684a2.335,2.335,0,0,0-3.3,0l-.684.684-.684-.684a2.336,2.336,0,0,0-3.3,3.3l.684.684-.684.684a2.336,2.336,0,1,0,3.3,3.3l.684-.684.685.684a2.336,2.336,0,1,0,3.3-3.3l-.684-.684.684-.684A2.336,2.336,0,0,0,285.994,192.684Z" transform="translate(-235.281 -157.637)"/><path class="f" d="M221.994,299.351a2.335,2.335,0,0,0-3.3,0l-.684.684-.684-.684a2.336,2.336,0,0,0-3.3,3.3l.684.684-.684.684a2.336,2.336,0,1,0,3.3,3.3l.684-.684.684.684a2.336,2.336,0,1,0,3.3-3.3l-.685-.684.684-.684A2.335,2.335,0,0,0,221.994,299.351Z" transform="translate(-185.299 -240.941)"/><path class="f" d="M285.994,299.351a2.335,2.335,0,0,0-3.3,0l-.684.684-.684-.684a2.336,2.336,0,0,0-3.3,3.3l.684.684-.684.684a2.336,2.336,0,1,0,3.3,3.3l.684-.684.685.684a2.336,2.336,0,1,0,3.3-3.3l-.685-.684.684-.684A2.335,2.335,0,0,0,285.994,299.351Z" transform="translate(-235.281 -240.941)"/><path class="f" d="M221.994,406.017a2.335,2.335,0,0,0-3.3,0l-.684.684-.684-.684a2.336,2.336,0,1,0-3.3,3.3l.684.684-.684.685a2.336,2.336,0,1,0,3.3,3.3l.684-.684.684.684a2.336,2.336,0,1,0,3.3-3.3l-.684-.685.684-.684A2.335,2.335,0,0,0,221.994,406.017Z" transform="translate(-185.299 -324.245)"/><path class="f" d="M349.994,192.684a2.335,2.335,0,0,0-3.3,0l-.684.684-.685-.684a2.336,2.336,0,0,0-3.3,3.3l.684.684-.684.684a2.336,2.336,0,1,0,3.3,3.3l.684-.684.684.684a2.336,2.336,0,0,0,3.3-3.3l-.685-.684.685-.684A2.336,2.336,0,0,0,349.994,192.684Z" transform="translate(-285.264 -157.637)"/><path class="g" d="M170.667,28.342A2.34,2.34,0,0,1,173,26.005h8.3a2.33,2.33,0,0,0,2.017-1.161,6.938,6.938,0,0,1,12.065,0,2.331,2.331,0,0,0,2.017,1.161h8.3a2.339,2.339,0,0,1,2.336,2.336v2.336a4.677,4.677,0,0,1-4.672,4.672H175.339a4.677,4.677,0,0,1-4.672-4.672Z" transform="translate(-151.977 -21.333)"/></g></svg>