<svg xmlns="http://www.w3.org/2000/svg" width="24.776" height="34.067" viewBox="0 0 24.776 34.067"><defs><style>.a{opacity:0.1;}.b{fill:#dce8eb;}.c{fill:#fff;}.d{fill:#303c42;}.e{fill:#9ccc65;}.f{fill:#78909c;}</style></defs><g transform="translate(-74.642 -10.641)"><path class="a" d="M181.506,49.753h-9.291a1.531,1.531,0,0,1-1.461-1.115.756.756,0,0,0-.088.341v.774a1.55,1.55,0,0,0,1.548,1.548h9.291a1.55,1.55,0,0,0,1.548-1.548v-.774a.756.756,0,0,0-.088-.341A1.531,1.531,0,0,1,181.506,49.753Z" transform="translate(-89.831 -36.015)"/><path class="b" d="M110.11,93.421a1.55,1.55,0,0,1-1.548,1.548H86.882a1.55,1.55,0,0,1-1.548-1.548V65.548A1.55,1.55,0,0,1,86.882,64h3.1a3.1,3.1,0,0,0,3.1,3.1l-4.661-.2c1.707,0,1.179-1.186,1.179-2.895h18.967a1.55,1.55,0,0,1,1.548,1.548V93.421Z" transform="translate(-10.692 -50.262)"/><path class="c" d="M160.009,92.069l-.009,0,.073.073C160.05,92.122,160.031,92.094,160.009,92.069Z" transform="translate(-79.938 -76.293)"/><path class="d" d="M131.87,170.667h-3.1a.774.774,0,0,0-.774.774v3.1a.774.774,0,0,0,.774.774h3.1a.774.774,0,0,0,.774-.774v-3.1A.774.774,0,0,0,131.87,170.667Z" transform="translate(-50.26 -149.186)"/><rect class="e" width="1.548" height="1.548" transform="translate(79.287 23.029)"/><path class="d" d="M131.87,277.333h-3.1a.774.774,0,0,0-.774.774v3.1a.774.774,0,0,0,.774.774h3.1a.774.774,0,0,0,.774-.774v-3.1A.774.774,0,0,0,131.87,277.333Z" transform="translate(-50.26 -248.11)"/><rect class="e" width="1.548" height="1.548" transform="translate(79.287 30.772)"/><path class="d" d="M131.87,384h-3.1a.774.774,0,0,0-.774.774v3.1a.774.774,0,0,0,.774.774h3.1a.774.774,0,0,0,.774-.774v-3.1A.774.774,0,0,0,131.87,384Z" transform="translate(-50.26 -347.034)"/><rect class="e" width="1.548" height="1.548" transform="translate(79.287 38.514)"/><g transform="translate(83.933 23.029)"><path class="d" d="M216.2,192.227a.774.774,0,0,0-1.095,0l-.227.227-.227-.227a.774.774,0,0,0-1.095,1.095l.227.227-.227.227a.774.774,0,1,0,1.095,1.095l.227-.227.227.227a.774.774,0,1,0,1.095-1.095l-.227-.227.227-.227A.774.774,0,0,0,216.2,192.227Z" transform="translate(-213.334 -192)"/><path class="d" d="M280.2,192.227a.774.774,0,0,0-1.095,0l-.227.227-.227-.227a.774.774,0,0,0-1.095,1.095l.227.227-.227.227a.774.774,0,1,0,1.095,1.095l.227-.227.227.227a.774.774,0,1,0,1.095-1.095l-.227-.227.227-.227A.774.774,0,0,0,280.2,192.227Z" transform="translate(-272.688 -192)"/><path class="d" d="M216.2,298.894a.774.774,0,0,0-1.095,0l-.227.227-.227-.227a.774.774,0,0,0-1.095,1.095l.227.227-.227.227a.774.774,0,1,0,1.095,1.095l.227-.227.227.227a.774.774,0,0,0,1.095-1.095l-.227-.227.227-.227A.774.774,0,0,0,216.2,298.894Z" transform="translate(-213.334 -290.924)"/><path class="d" d="M280.2,298.894a.774.774,0,0,0-1.095,0l-.227.227-.227-.227a.774.774,0,0,0-1.095,1.095l.227.227-.227.227a.774.774,0,1,0,1.095,1.095l.227-.227.227.227a.774.774,0,0,0,1.095-1.095l-.227-.227.227-.227A.774.774,0,0,0,280.2,298.894Z" transform="translate(-272.688 -290.924)"/><path class="d" d="M216.2,405.56a.774.774,0,0,0-1.095,0l-.227.227-.227-.227a.774.774,0,0,0-1.095,1.095l.227.227-.227.227a.774.774,0,1,0,1.095,1.095l.227-.227.227.227a.774.774,0,0,0,1.095-1.095l-.227-.227.227-.227A.774.774,0,0,0,216.2,405.56Z" transform="translate(-213.334 -389.848)"/><path class="d" d="M344.2,192.227a.774.774,0,0,0-1.095,0l-.227.227-.227-.227a.774.774,0,0,0-1.095,1.095l.227.227-.227.227a.774.774,0,1,0,1.095,1.095l.227-.227.227.227a.774.774,0,0,0,1.095-1.095l-.227-.227.227-.227A.774.774,0,0,0,344.2,192.227Z" transform="translate(-332.043 -192)"/></g><path class="f" d="M170.667,23.656a.775.775,0,0,1,.774-.774h2.752a.772.772,0,0,0,.668-.385,2.3,2.3,0,0,1,4,0,.773.773,0,0,0,.668.385h2.752a.775.775,0,0,1,.774.774v.774a1.55,1.55,0,0,1-1.548,1.548h-9.291a1.55,1.55,0,0,1-1.548-1.548Z" transform="translate(-89.831 -10.692)"/></g></svg>