<svg xmlns="http://www.w3.org/2000/svg" width="29.598" height="34.205" viewBox="0 0 29.598 34.205"><defs><style>.a{fill:#535454;}.b{fill:#666;}.c{fill:#eaeaea;}.d{fill:#313b57;}.e{fill:#f64c4c;}</style></defs><g transform="translate(-4.227 0)"><path class="a" d="M64.08,260.462v8.28a17.108,17.108,0,0,1-29.6,0v-8.28Z" transform="translate(-30.254 -243.061)"/><path class="b" d="M62.95,229.267H35.6a1.126,1.126,0,0,1-1.126-1.126v-4.17a1.126,1.126,0,0,1,1.126-1.126H62.95a1.126,1.126,0,0,1,1.126,1.126v4.17A1.126,1.126,0,0,1,62.95,229.267Z" transform="translate(-30.251 -207.957)"/><rect class="a" width="14.939" height="1.955" transform="translate(11.557 17.122)"/><path class="c" d="M142.12,9.423l-9.655,9.655H125.9l-1.954-1.955-2.973-2.973a1.209,1.209,0,0,1,0-1.71L133.053.357a1.21,1.21,0,0,1,1.711,0l7.356,7.356A1.209,1.209,0,0,1,142.12,9.423Z" transform="translate(-110.633 -0.002)"/><g transform="translate(12.63 4.05)"><path class="d" d="M253.109,64.971,251.234,63.1a.349.349,0,0,1,0-.494l1.876-1.876a.349.349,0,0,1,.494,0l1.876,1.876a.349.349,0,0,1,0,.494L253.6,64.971A.349.349,0,0,1,253.109,64.971Zm-1.135-2.122,1.382,1.382,1.382-1.382-1.382-1.382Z" transform="translate(-245.06 -60.624)"/><path class="d" d="M323.6,117.332l-3.653-3.653a.349.349,0,0,1,.494-.494l3.653,3.653a.349.349,0,1,1-.494.494Z" transform="translate(-309.181 -109.579)"/><path class="d" d="M306.159,132.4l-2.468-2.468a.349.349,0,0,1,.494-.494l2.468,2.468a.349.349,0,1,1-.494.494Z" transform="translate(-294.013 -124.747)"/><path class="d" d="M207.668,110.41l-1.876-1.876a.349.349,0,0,1,0-.494l1.876-1.876a.349.349,0,0,1,.494,0l1.876,1.876a.349.349,0,0,1,0,.494l-1.876,1.876A.349.349,0,0,1,207.668,110.41Zm-1.135-2.122,1.382,1.382,1.382-1.382-1.382-1.382Z" transform="translate(-202.655 -103.028)"/><path class="d" d="M278.159,162.771l-3.653-3.653a.349.349,0,0,1,.494-.494l3.653,3.653a.349.349,0,0,1-.494.494Z" transform="translate(-266.778 -151.982)"/><path class="d" d="M260.719,177.842l-2.468-2.468a.349.349,0,0,1,.494-.494l2.468,2.468a.349.349,0,0,1-.494.494Z" transform="translate(-251.609 -167.152)"/><path class="d" d="M162.229,155.85l-1.876-1.876a.349.349,0,0,1,0-.494l1.876-1.876a.349.349,0,0,1,.494,0l1.876,1.876a.349.349,0,0,1,0,.494l-1.876,1.876A.349.349,0,0,1,162.229,155.85Zm-1.135-2.122,1.382,1.382,1.382-1.382-1.382-1.382Z" transform="translate(-160.251 -145.432)"/><path class="d" d="M232.719,208.211l-3.653-3.653a.349.349,0,0,1,.494-.494l3.653,3.653a.349.349,0,1,1-.494.494Z" transform="translate(-224.374 -194.386)"/><path class="d" d="M215.28,223.281l-2.468-2.468a.349.349,0,0,1,.494-.494l2.468,2.468a.349.349,0,0,1-.494.494Z" transform="translate(-209.206 -209.555)"/></g><path class="e" d="M226.481,115.925a.347.347,0,0,1-.1-.247V113.8a.349.349,0,1,1,.7,0v1.527h2.835a.349.349,0,0,1,0,.7h-3.184A.348.348,0,0,1,226.481,115.925Z" transform="translate(-209.331 -105.874)"/></g></svg>